<svg xmlns="http://www.w3.org/2000/svg" xmlns:xlink="http://www.w3.org/1999/xlink" viewBox="0 0 250 65"><defs><linearGradient id="a" x1="82.07" x2="82.07" y1="-16.44" y2="-6.86" gradientTransform="translate(0 64)" gradientUnits="userSpaceOnUse"><stop offset="0" stop-color="#282a2b"/><stop offset=".49" stop-color="#161718"/><stop offset=".99"/></linearGradient><linearGradient xlink:href="#a" id="c" x1="102.12" x2="102.12" y1="-16.44" y2="-6.87"/><linearGradient xlink:href="#a" id="d" x1="119.52" x2="119.52" y1="-16.44" y2="-6.86"/><linearGradient xlink:href="#a" id="e" x1="133.14" x2="133.14" y1="-16.44" y2="-6.86"/><linearGradient xlink:href="#a" id="f" x1="150.55" x2="150.55" y1="-16.44" y2="-6.85"/><linearGradient xlink:href="#a" id="g" x1="170.95" x2="170.95" y1="-16.44" y2="-6.86"/><linearGradient xlink:href="#a" id="h" x1="188.29" x2="188.29" y1="-16.44" y2="-6.86"/><linearGradient xlink:href="#a" id="i" x1="202.34" x2="202.34" y1="-16.44" y2="-6.86"/><linearGradient xlink:href="#a" id="j" x1="220.04" x2="220.04" y1="-16.44" y2="-6.87"/><linearGradient xlink:href="#a" id="k" x1="240.96" x2="240.96" y1="-16.44" y2="-6.86"/><linearGradient id="b" x1="90.9" x2="90.9" y1="-62.44" y2="-30.34" gradientTransform="translate(0 64)" gradientUnits="userSpaceOnUse"><stop offset="0" stop-color="#59595c"/><stop offset=".27" stop-color="#444447"/><stop offset=".83" stop-color="#101010"/><stop offset=".99"/></linearGradient><linearGradient xlink:href="#b" id="l" x1="117.7" x2="117.7" y1="-62.44" y2="-30.34"/><linearGradient xlink:href="#b" id="m" x1="154.62" x2="154.62" y1="-62.44" y2="-30.34"/><linearGradient xlink:href="#b" id="n" x1="191.55" x2="191.55" y1="-62.44" y2="-30.34"/><linearGradient xlink:href="#b" id="o" x1="211.96" x2="211.96" y1="-62.44" y2="-30.34"/><linearGradient xlink:href="#b" id="p" x1="232.03" x2="232.03" y1="-62.44" y2="-30.34"/></defs><path fill="none" d="M0 0h250v65H0z" style="fill:#fff;fill-opacity:0"/><path d="M85.67 58.05a.13.13 0 0 1 .14.07l.19.38a.22.22 0 0 1 .06.19.45.45 0 0 1-.11.17c-.21.16-.42.31-.64.45a5.34 5.34 0 0 1-.75.39 6.13 6.13 0 0 1-.83.26 4.23 4.23 0 0 1-2.73-.34 5.24 5.24 0 0 1-1.54-1 4.67 4.67 0 0 1-1-1.52 4.49 4.49 0 0 1-.38-1.88 4.4 4.4 0 0 1 .38-1.86 4.57 4.57 0 0 1 1-1.52 4.87 4.87 0 0 1 1.54-1 4.76 4.76 0 0 1 1.83-.34 4.58 4.58 0 0 1 .83.08 3.86 3.86 0 0 1 .82.24 4.2 4.2 0 0 1 .77.37 3.75 3.75 0 0 1 .69.49.2.2 0 0 1 .1.2L86 52l-.22.35h-.16a.23.23 0 0 1-.16-.06 3.45 3.45 0 0 0-1.29-.83 3.83 3.83 0 0 0-1.34-.24 3.69 3.69 0 0 0-1.47.31 4 4 0 0 0-2.12 2.06 3.69 3.69 0 0 0-.33 1.57 4.07 4.07 0 0 0 .31 1.54 3.93 3.93 0 0 0 3.62 2.41A4 4 0 0 0 85 58.5a4.91 4.91 0 0 0 .51-.39.23.23 0 0 1 .16-.06Z" style="fill:url(#a)"/><path d="M97.71 53.32a4.53 4.53 0 0 1 1-1.51 4.71 4.71 0 0 1 1.53-1 4.58 4.58 0 0 1 1.86-.37 4.62 4.62 0 0 1 1.87.37 4.8 4.8 0 0 1 2.54 2.53 4.89 4.89 0 0 1 0 3.72 5.32 5.32 0 0 1-1 1.53 4.63 4.63 0 0 1-1.51 1 4.47 4.47 0 0 1-1.87.38 4.76 4.76 0 0 1-1.86-.38 5.19 5.19 0 0 1-1.53-1 5.32 5.32 0 0 1-1-1.53 4.71 4.71 0 0 1 0-3.72Zm.82 3.39a4.16 4.16 0 0 0 .85 1.29 3.84 3.84 0 0 0 4.32.87 3.9 3.9 0 0 0 1.23-.86 4 4 0 0 0 0-5.58 3.81 3.81 0 0 0-1.24-.85 3.5 3.5 0 0 0-1.53-.32 3.79 3.79 0 0 0-1.52.31 4 4 0 0 0-1.24.85 4.15 4.15 0 0 0-.84 1.26 4.05 4.05 0 0 0 0 3.06Z" style="fill:url(#c)"/><path d="M119.11 48.06a.36.36 0 0 1 .06-.2.18.18 0 0 1 .18-.08h.38a.18.18 0 0 1 .18.08.67.67 0 0 1 0 .2V59.5a.67.67 0 0 1 0 .2.23.23 0 0 1-.18.08h-.33a.23.23 0 0 1-.18-.08.36.36 0 0 1-.06-.2Z" style="fill:url(#d)"/><path d="M132.72 48.06a.36.36 0 0 1 .06-.2.17.17 0 0 1 .17-.08h.38a.18.18 0 0 1 .18.08.36.36 0 0 1 .06.2V59.5a.36.36 0 0 1-.06.2.23.23 0 0 1-.18.08H133a.21.21 0 0 1-.17-.08.36.36 0 0 1-.06-.2Z" style="fill:url(#e)"/><path d="M146.7 55.5a4 4 0 0 0 1.3 2.6 4.26 4.26 0 0 0 1.22.79 3.83 3.83 0 0 0 1.46.28 4.78 4.78 0 0 0 1-.1 5 5 0 0 0 .74-.26 4.37 4.37 0 0 0 .61-.31l.45-.37a.32.32 0 0 1 .19-.07.14.14 0 0 1 .13.06l.21.29a.19.19 0 0 1 0 .18.21.21 0 0 1-.08.16 3.9 3.9 0 0 1-.69.52 4.06 4.06 0 0 1-.74.4 4.3 4.3 0 0 1-1.84.34 4.75 4.75 0 0 1-1.86-.37 5 5 0 0 1-2.6-2.54 4.52 4.52 0 0 1-.39-1.85 4.81 4.81 0 0 1 .38-1.87 5.19 5.19 0 0 1 1-1.53 4.71 4.71 0 0 1 1.53-1 4.48 4.48 0 0 1 1.87-.39 4.41 4.41 0 0 1 1.93.41 4.61 4.61 0 0 1 1.48 1.06 4.67 4.67 0 0 1 1 1.52 4.51 4.51 0 0 1 .35 1.74q0 .39-.42.39Zm2.53-4a4.08 4.08 0 0 0-1.18.75 3.85 3.85 0 0 0-.86 1.1 3.9 3.9 0 0 0-.46 1.33h7.81a4 4 0 0 0-.42-1.24 4.22 4.22 0 0 0-.81-1.11 4.31 4.31 0 0 0-1.18-.8 3.83 3.83 0 0 0-2.9 0Z" style="fill:url(#f)"/><path d="M174.57 58.05a.13.13 0 0 1 .14.07l.22.33a.22.22 0 0 1 .06.19.25.25 0 0 1-.11.17 4.09 4.09 0 0 1-.64.45 5.22 5.22 0 0 1-.74.39 5.85 5.85 0 0 1-.84.26 4.88 4.88 0 0 1-.93.09 5 5 0 0 1-3.4-1.38 5 5 0 0 1-1.05-1.52 4.86 4.86 0 0 1-.38-1.88 4.76 4.76 0 0 1 .38-1.86 5 5 0 0 1 1.05-1.52 4.76 4.76 0 0 1 1.54-1 4.56 4.56 0 0 1 2.68-.3 3.86 3.86 0 0 1 .82.24 3.64 3.64 0 0 1 .77.37 4.19 4.19 0 0 1 .7.49c.08.07.11.14.09.2V52l-.22.35-.06.05h-.11a.2.2 0 0 1-.15-.06 3.66 3.66 0 0 0-1.29-.79 4 4 0 0 0-4.94 2.13 3.68 3.68 0 0 0-.32 1.57 3.72 3.72 0 0 0 .31 1.54A4.48 4.48 0 0 0 169 58a4.23 4.23 0 0 0 1.25.84 4 4 0 0 0 1.52.31 3.84 3.84 0 0 0 .83-.09 3.64 3.64 0 0 0 .71-.22 4.42 4.42 0 0 0 .61-.32 5 5 0 0 0 .52-.39.22.22 0 0 1 .13-.08Z" style="fill:url(#g)"/><path d="M188.51 50.56h1.67a.22.22 0 0 1 .17.06.18.18 0 0 1 .06.17v.3a.29.29 0 0 1-.07.18.19.19 0 0 1-.17.1h-1.66v6.43a2.81 2.81 0 0 0 0 .41 1.13 1.13 0 0 0 .17.39.79.79 0 0 0 .31.29 1 1 0 0 0 .48.13h.46a.14.14 0 0 1 .09 0 .06.06 0 0 1 0 .06v.43a.25.25 0 0 1 0 .17.81.81 0 0 1-.31.06h-.52a1.65 1.65 0 0 1-.68-.22 1.83 1.83 0 0 1-.5-.42 1.78 1.78 0 0 1-.32-.57 2.11 2.11 0 0 1-.1-.66v-6.51h-1.19a.3.3 0 0 1-.17-.08.31.31 0 0 1-.07-.2v-.29c0-.09 0-.15.07-.18a.27.27 0 0 1 .17-.06h1.28v-2a.25.25 0 0 1 0-.17.31.31 0 0 1 .18-.09l.41-.11h.06a.12.12 0 0 1 .13.07.61.61 0 0 1 0 .19Z" style="fill:url(#h)"/><path d="M201.9 47.77a.2.2 0 0 1 0-.15.18.18 0 0 1 .17-.06h.55c.13 0 .19.07.19.22v.53a.18.18 0 0 1-.05.16h-.69c-.14 0-.22-.06-.22-.2Zm0 3c0-.17.08-.25.23-.25h.4a.31.31 0 0 1 .2.07.21.21 0 0 1 .09.18v8.73c0 .17-.07.26-.22.26h-.47c-.15 0-.23-.09-.23-.26Z" style="fill:url(#i)"/><path d="M215.7 53.32a4.53 4.53 0 0 1 1-1.51 4.67 4.67 0 0 1 1.52-1 4.58 4.58 0 0 1 1.86-.37 4.87 4.87 0 0 1 3.39 1.37 4.53 4.53 0 0 1 1 1.51 4.89 4.89 0 0 1 0 3.72 5.32 5.32 0 0 1-1 1.53 4.67 4.67 0 0 1-1.52 1 4.8 4.8 0 0 1-3.72 0 5 5 0 0 1-2.57-2.57 4.31 4.31 0 0 1 0-3.68Zm.83 3.39a4 4 0 0 0 2.09 2.14 3.84 3.84 0 0 0 3.08 0 4 4 0 0 0 0-7.29 3.81 3.81 0 0 0-3 0 4 4 0 0 0-1.24.85 3.81 3.81 0 0 0-.84 1.26 4 4 0 0 0 0 3.06Z" style="fill:url(#j)"/><path d="M237.12 50.78a.22.22 0 0 1 .08-.2.25.25 0 0 1 .2-.07h.3a.22.22 0 0 1 .2.08.26.26 0 0 1 .07.19v1.15a3.1 3.1 0 0 1 .71-.78 3.81 3.81 0 0 1 .8-.47 3.33 3.33 0 0 1 .82-.23 4.74 4.74 0 0 1 .75-.06 3.82 3.82 0 0 1 1.53.29 3.3 3.3 0 0 1 1.18.8 3.63 3.63 0 0 1 .76 1.23 4.4 4.4 0 0 1 .27 1.57v5.22a.3.3 0 0 1-.08.24.32.32 0 0 1-.21.08h-.27a.27.27 0 0 1-.23-.08.35.35 0 0 1-.06-.24v-5.23a3 3 0 0 0-.2-1.11 3 3 0 0 0-.58-1 2.83 2.83 0 0 0-.93-.68 3 3 0 0 0-2.34 0 3.2 3.2 0 0 0-1 .61 3 3 0 0 0-.69.93 2.46 2.46 0 0 0-.26 1.16v5.41c0 .16-.08.24-.22.24h-.32a.21.21 0 0 1-.23-.19Z" style="fill:url(#k)"/><path d="m91.3 20.79 12.28 16.07a.69.69 0 0 1 .19.64.49.49 0 0 1-.52.28h-5.8a.87.87 0 0 1-.58-.2 3.43 3.43 0 0 1-.48-.53l-9-11.84-3.61 3.87V37c0 .54-.25.81-.76.81h-4.23c-.51 0-.77-.27-.77-.81V9.07a.82.82 0 0 1 .21-.6.7.7 0 0 1 .56-.23H83a1 1 0 0 1 .52.22.71.71 0 0 1 .3.61v12.28l11-12.53a1.62 1.62 0 0 1 .61-.49 1.59 1.59 0 0 1 .57-.09h5.14c.29 0 .45.11.49.33a.81.81 0 0 1-.2.61Z" style="fill:url(#b)"/><path d="M130.81 37c0 .55-.26.83-.79.83h-3.54a1.17 1.17 0 0 1-.88-.36 1.23 1.23 0 0 1-.34-.89v-1.7a12.32 12.32 0 0 1-3.63 2.46 10.56 10.56 0 0 1-4.26.89 12.59 12.59 0 0 1-4.84-1 12.87 12.87 0 0 1-6.94-6.82 13.29 13.29 0 0 1 0-10.32 13 13 0 0 1 6.83-7 12.11 12.11 0 0 1 5-1A11.24 11.24 0 0 1 122 13a10.08 10.08 0 0 1 3.6 2.7l.35-2.49a1.56 1.56 0 0 1 .23-.62.7.7 0 0 1 .58-.2h3.31c.53 0 .79.27.79.82Zm-6.22-14.82a7.8 7.8 0 0 0-4-4.22 6.75 6.75 0 0 0-3-.64 7.26 7.26 0 0 0-2.87.59 7.58 7.58 0 0 0-2.32 1.64 7.47 7.47 0 0 0-1.6 2.45 8.32 8.32 0 0 0-.59 3.16 8.42 8.42 0 0 0 .56 3.1 7.84 7.84 0 0 0 1.58 2.51 7.36 7.36 0 0 0 2.34 1.72 7 7 0 0 0 2.93.61 7.21 7.21 0 0 0 3-.63 7.57 7.57 0 0 0 2.38-1.7 7.8 7.8 0 0 0 1.58-2.5 8.12 8.12 0 0 0 .57-3 7.88 7.88 0 0 0-.56-3.14Z" style="fill:url(#l)"/><path d="M141.75 36.93a.74.74 0 0 1-.61.85h-4.34c-.54 0-.81-.29-.81-.85V13.24c0-.57.27-.85.81-.85h2.83a1.05 1.05 0 0 1 .75.3 1.22 1.22 0 0 1 .41.71l.29 2.38a10 10 0 0 1 3.19-2.66 8.56 8.56 0 0 1 4-.94 8.42 8.42 0 0 1 4.34 1.07 8.05 8.05 0 0 1 3 3.36A13.58 13.58 0 0 1 157 14.8a8 8 0 0 1 3.87-2.3 10.69 10.69 0 0 1 2.76-.32 9.81 9.81 0 0 1 4.27.86 8.54 8.54 0 0 1 3 2.33 9.79 9.79 0 0 1 1.77 3.42 14.56 14.56 0 0 1 .58 4.1v14c0 .56-.27.85-.81.85h-4a.75.75 0 0 1-.83-.66.61.61 0 0 1 0-.19v-14a5.74 5.74 0 0 0-.33-1.92 5.12 5.12 0 0 0-1-1.7 4.87 4.87 0 0 0-1.59-1.22 4.6 4.6 0 0 0-2.16-.47 4.9 4.9 0 0 0-2 .4 5.17 5.17 0 0 0-2.75 2.67 4.75 4.75 0 0 0-.41 2V37c0 .55-.27.83-.79.83h-4a.74.74 0 0 1-.83-.64.61.61 0 0 1 0-.19V22.8a5.35 5.35 0 0 0-1.33-3.54 5 5 0 0 0-1.55-1.26 4.34 4.34 0 0 0-2.09-.48 5.55 5.55 0 0 0-1.72.3 5.13 5.13 0 0 0-3 2.59 5.35 5.35 0 0 0-.5 2.39Z" style="fill:url(#m)"/><path d="M178.61 5.84a.73.73 0 0 1 .61-.83h4.36c.52 0 .78.28.78.83v9.55a12.14 12.14 0 0 1 3.56-2.39 10.52 10.52 0 0 1 4.29-.87A11.68 11.68 0 0 1 201.1 16a12.51 12.51 0 0 1 2.51 4.15 14.21 14.21 0 0 1 .9 5.08 13.87 13.87 0 0 1-1 5.24 12.35 12.35 0 0 1-2.62 4.13 11.91 11.91 0 0 1-3.89 2.65 12.39 12.39 0 0 1-4.88 1 10 10 0 0 1-4.17-.91 12.52 12.52 0 0 1-3.51-2.53l-.44 1.87a2.52 2.52 0 0 1-.33.75.89.89 0 0 1-.77.35h-3.5a.73.73 0 0 1-.81-.64.61.61 0 0 1 0-.19ZM184 25.18a7.68 7.68 0 0 0 .63 3.1 8.13 8.13 0 0 0 1.7 2.51 7.54 7.54 0 0 0 5.47 2.32 7.2 7.2 0 0 0 3-.62 7 7 0 0 0 2.32-1.68 7.81 7.81 0 0 0 1.49-2.51 8.76 8.76 0 0 0 .53-3.08 8.56 8.56 0 0 0-.54-3 8 8 0 0 0-1.5-2.53 7 7 0 0 0-2.31-1.69 6.79 6.79 0 0 0-2.94-.63 7.78 7.78 0 0 0-5.56 2.3 8.13 8.13 0 0 0-1.69 2.53 7.77 7.77 0 0 0-.6 2.98Z" style="fill:url(#n)"/><path d="M209.11 5.9a.84.84 0 0 1 .24-.64A.81.81 0 0 1 210 5h4a.81.81 0 0 1 .62.25.93.93 0 0 1 .23.62v31a.92.92 0 0 1-.22.63.77.77 0 0 1-.63.24h-4a.76.76 0 0 1-.85-.66.74.74 0 0 1 0-.21Z" style="fill:url(#o)"/><path d="M239.12 30.63a.53.53 0 0 1 .25 0 .55.55 0 0 1 .23.2l2 2.48a.79.79 0 0 1 0 1.12l-.09.08a15.16 15.16 0 0 1-4.46 2.81 13 13 0 0 1-4.69.85 12.27 12.27 0 0 1-5-1 13.53 13.53 0 0 1-7-6.93 12.3 12.3 0 0 1-1.06-5 13.36 13.36 0 0 1 1-5.07A13.09 13.09 0 0 1 223 16a12.4 12.4 0 0 1 9.22-3.82 11.88 11.88 0 0 1 2.85.34 13 13 0 0 1 5.5 2.79 11 11 0 0 1 2.16 2.5 13.4 13.4 0 0 1 1.48 3.3 14.85 14.85 0 0 1 .54 4.14 4.77 4.77 0 0 1-.08 1 1.05 1.05 0 0 1-.93.9 6.74 6.74 0 0 1-1 .08H225a7.72 7.72 0 0 0 1 2.45 7.22 7.22 0 0 0 1.69 1.88 7.62 7.62 0 0 0 2.2 1.21 8.12 8.12 0 0 0 2.59.42 10 10 0 0 0 2.24-.23 7.14 7.14 0 0 0 2.85-1.38c.35-.28.7-.54 1-.79a.86.86 0 0 1 .55-.16Zm-9.2-13.2a7.44 7.44 0 0 0-2 1.17 8.77 8.77 0 0 0-2.7 3.87h14.18a9.54 9.54 0 0 0-1.13-2.2 7.52 7.52 0 0 0-1.6-1.73 6.71 6.71 0 0 0-2-1.13 6.87 6.87 0 0 0-4.73 0Z" style="fill:url(#p)"/><path d="M16.4.5h33A15.47 15.47 0 0 1 64.89 16v33a15.47 15.47 0 0 1-15.46 15.5h-33A15.47 15.47 0 0 1 .93 49V16A15.47 15.47 0 0 1 16.4.5Z" style="fill:#e81e25"/><path d="M16.12 25.77a.4.4 0 0 1 .12.27 4.52 4.52 0 0 0 .94 1.23 4.35 4.35 0 0 0 .73.62 5.25 5.25 0 0 0 2.32.81 9.64 9.64 0 0 0 4.47-.81.14.14 0 0 0 .12-.06 5.42 5.42 0 0 0 .56-.22l.68-.34a5.07 5.07 0 0 0 .57-.29 5.36 5.36 0 0 1 .57-.34l.86-.56a24.35 24.35 0 0 0 2.25-1.68l-4.64-7V26a11.13 11.13 0 0 1-1.08.57l-.33.17c-.52.17-.92.34-1.36.45a1.41 1.41 0 0 0-.46.11v-7a.83.83 0 0 0-.46-.74c-2.77-.62-4.85.23-5.77 2.16a5 5 0 0 0-.21 3.49 1.84 1.84 0 0 1 .12.56ZM25.68 17.35z" style="fill:#c52129"/><path d="m18.7 45.41 3.74.12V33.92h6.74L41 45.53h4.48L31.72 31.76l11.89-11.61h-4.22l-.28.29a6.21 6.21 0 0 1-.73.81c-.22.25-.45.5-.68.73s-.52.57-.81.86a15 15 0 0 1-1.3 1.23l-.68.69c-.23.23-.45.39-.68.62-.51.4-1 .85-1.47 1.25a2.27 2.27 0 0 0-.57.45 4.68 4.68 0 0 0-.62.45c-.23.17-.45.29-.68.46a.85.85 0 0 1-.28.22c-.17.12-.29.23-.4.29a8 8 0 0 0-.68.45 2.36 2.36 0 0 0-.62.4l-.68.33a14.67 14.67 0 0 1-2.32 1.14 2.32 2.32 0 0 1-.57.22c-.39.17-.81.29-1.12.41a17.31 17.31 0 0 1-2.78.44h-1a8.41 8.41 0 0 1-4.33-1.3c-.28-.18-.39-.51-.68-.68v1.69a10 10 0 0 0 3.2 1.31Z" style="fill:#c52129"/><path d="m52.43 16.92-16 14.9 16.89 16.94H39.08L27.82 37.15h-2.15v11.61h-10.2L26.81 64.5h22.67a15.43 15.43 0 0 0 15.45-15.39V35.17Z" style="fill:#c10013"/><path d="M25.69 17.35h-.01.01z" style="fill:#c52129"/><path d="m36.39 31.83 16-14.92h-14.5l-.48.55c-.61.73-1.23 1.42-1.84 2.08-.41.44-.81.86-1.21 1.25a39.42 39.42 0 0 1-6.3 5.21l-.86.53c-.2.12-.38.23-.58.33l-.55.29-.68.34-.56.24-.13.05a9.42 9.42 0 0 1-4.47.81 4.9 4.9 0 0 1-2.31-.81A4.5 4.5 0 0 1 16.3 26l-.12-.27a8.91 8.91 0 0 1-.2-.55 5 5 0 0 1 .24-3.42c.91-1.9 3-2.74 5.76-2.13.32.15.42.3.47.76v6.9a1.51 1.51 0 0 0 .43-.11 12.62 12.62 0 0 0 1.35-.46l.34-.15a11.18 11.18 0 0 0 1.11-.57v-8.65L24.56 17a19.53 19.53 0 0 0-2.13-.54 10.05 10.05 0 0 0-5 .28 6.9 6.9 0 0 0-2.92 1.89 6.46 6.46 0 0 0-.81 1.13 6.25 6.25 0 0 0-.33.63 8.09 8.09 0 0 0 0 6.77 7.77 7.77 0 0 0 .33.92 7.83 7.83 0 0 0 2.43 2.53 8.37 8.37 0 0 0 4.31 1.33h1a12.29 12.29 0 0 0 2.75-.48 10.08 10.08 0 0 0 1.14-.37l.57-.22a17.32 17.32 0 0 0 2.35-1.2l.62-.4.64-.39.65-.44.41-.26.32-.23.68-.5.58-.44c.2-.15.39-.3.57-.46.48-.38 1-.81 1.46-1.23.23-.21.46-.41.68-.63l.72-.66c.42-.4.85-.81 1.28-1.27.25-.26.53-.53.81-.81l.71-.75.71-.81.29-.32h4.25L31.74 31.75 45.5 45.52H41L29.17 33.93h-6.71v11.58h-3.74V32.86a8.54 8.54 0 0 1-3.2-1.31V48.7h10.2V37.15h2.12L39.08 48.7H53.3Z" style="fill:#fff"/></svg>